<svg id="Layer_4" data-name="Layer 4" xmlns="http://www.w3.org/2000/svg" viewBox="0 0 369.45 391.98"><defs><style>.cls-1{fill:#8c8c8c;opacity:.8}</style></defs><title>mail</title><path class="cls-1" d="M1752.62,649.21c-31,16.33-62.51,22.53-100.25,22.53-92.36,0-170.64-67.59-170.64-175.72,0-116,80.53-216.27,205.56-216.27,98,0,163.89,68.72,163.89,162.77,0,84.48-47.31,134-100.25,134-22.53,0-43.36-15.21-41.67-49.56H1707c-19.71,33.23-45.61,49.56-79.4,49.56-32.67,0-60.83-26.47-60.83-71,0-69.83,55.19-133.47,133.48-133.47,24.21,0,45.61,5.07,60.26,11.83l-19.15,101.93c-8.45,42.81-1.69,62.52,16.89,63.08,28.73.56,60.83-37.73,60.83-103.06,0-81.66-49-140.24-136.29-140.24-91.8,0-169,72.66-169,187,0,94.06,61.39,152.06,144.74,152.06,32.1,0,62-6.75,85-19.71Zm-31-243.3a97.43,97.43,0,0,0-28.16-3.94c-49.56,0-89.55,46.74-89.55,101.37,0,24.78,12.39,42.8,37.17,42.8,32.67,0,62.52-41.67,68.71-76.59Z" transform="translate(-1481.73 -279.75)"/></svg>