<svg id="Layer_2" data-name="Layer 2" xmlns="http://www.w3.org/2000/svg" viewBox="0 0 360.5 237.99"><defs><style>.cls-1{fill:#fff;}</style></defs><title>hat</title><path class="cls-1" d="M694.26,666.65l-11.78-9.57a.25.25,0,0,0-.25.24c-.44-2-4.76-3.79-.3-6a15.76,15.76,0,0,0,4.63-4,110.81,110.81,0,0,0,19-19.44c1.14-.61,1.54-1.77,2.12-2.81,3.33-3.93,7-7.66,8.33-12.87l0-.07c3.89-2.69,4.91-7.16,6.87-11,3.75-6.62,6.88-13.47,8-21.08,2.19-4.13,2.85-8.61,3.12-13.19.74-1.48,1.18-3.07-.08-4.38-1.75-1.8-2.68-4.07-4-6.14-.49-3.56-1.35-7.14,1-10.44a15.92,15.92,0,0,1,7.39-9c1.73-.34,3.41-.75,3.6-3q2.71-5.26,5.44-10.53c1.62-2.42,3.24-4.84,5.1-7.59l-14.09-4.31-1.19-.16-1.05-.59-1.39-.31L727.05,508l-11.33-3.44-10.36-3.19-6.52-2.49c-2.92-2.66-3.43-5.77-1.74-9.29,1.47-2,3.8-2.71,5.92-3.73a87.09,87.09,0,0,0,12.76-3.82c7.63-1.88,15.09-4.32,22.5-6.9a72.25,72.25,0,0,0,11.32-3.49l11.18-3.28,6.29-2.09a10.94,10.94,0,0,0,4.91-1.52l11.56-3.4c4.46-.9,8.61-3,13.21-3.41,2.29,0,4.08-1.25,5.92-2.38,1-.5,2.43.5,3.12-1,4-.35,7.36-2.63,11.17-3.53l11.33-3c4-.89,8-1.81,11.55-4a65.11,65.11,0,0,0,12.36-3.93l9.85-2.83a16.07,16.07,0,0,1,11.16-.5l11.07,3.42c3.47,2.3,7.68,2.2,11.47,3.44l.14.14.17-.11a68.14,68.14,0,0,0,10.9,3.58c3.37.71,6.35,2.76,9.88,3,4.31,1,8.2,3.34,12.65,3.89a4.6,4.6,0,0,0,3.45.82c2.42,1.36,5.15,1.85,7.77,2.64,3.65,1.1,7.16,2.64,11,3.14,3.86,1.15,7.13,4.15,11.5,3.73,7.13,2.09,14.12,4.68,21.4,6.26,4.21,1.4,8.13,3.69,12.67,4,7.29,2.78,14.85,4.7,22.29,7,3.43,1.24,6.72,2.92,10.44,3.2,2.94,1.26,6.19,1.82,8.84,3.77,2.43,5,2.18,6.83-1.4,10.38l-6.71,2.43L1019.31,505l-11.11,3.44c-3,.56-6.19.57-8.65,2.83a2.85,2.85,0,0,0-2.51.69l-11.62,3.41-10.94,3.47c-3.74.09-7,1.77-10.42,3.07l-.86.26L952,525.6a62.93,62.93,0,0,0-11.3,3.59c-7.76,1.38-15,4.46-22.5,6.8L907,539.28l-24.7,7.77-9.1,2.63c-3.79,1.55-7.51.62-11.24-.26l-11.25-3.55-22.43-6.78L817,535.4l-22.41-6.77-3.77-1.3c4.3-4.37,10.13-5.43,15-8.2l12.65-5a17.74,17.74,0,0,0,6.09-1.95l4.82-1.57a70.13,70.13,0,0,0,11-3l12-2.86a40.76,40.76,0,0,0,8.88-1.84c.67.26,1.69.93,2,.71,2.5-2,5.63-1.47,8.43-2.17,4.55-1.14,7.33-4.87,6.74-9.34-.48-3.71-5.39-7.63-9.36-7-6.61,1.06-13.16,2.48-19.73,3.74a44.32,44.32,0,0,0-9.85,2.21c-3.79.76-7.64,1.31-11.2,3A64,64,0,0,0,817,497.54a25,25,0,0,0-6.81,2.44l-.72.18-1,.56a3.33,3.33,0,0,0-2.75.9,63.07,63.07,0,0,0-11.35,4.91A26.7,26.7,0,0,0,787,510.4c-1.3.85-3.39.67-3.69,2.82l0,.14a.24.24,0,0,0-.35.19c-1.6-.81-2.51.58-3.58,1.22-3.7,2.23-6.78,5.22-10,8a35.28,35.28,0,0,0-8.81,10.7l0,0c-3.75,4.73-3.86,6.89-.54,10.7a1.33,1.33,0,0,0,.14.71,17.6,17.6,0,0,1,.54,11.24c-1,.52-.45,1.53-.69,2.3l-5.88,6.79a.6.6,0,0,0-.05.69l.05,1.55c-.34,3.77.28,7.49.68,11.21l.12,9.07a1,1,0,0,0,0,.63l0,1.6-.16,11.23a29.35,29.35,0,0,0-.56,7.54.91.91,0,0,0,0,.63c-.09,1-.18,2-.26,3q-.68,5.66-1.36,11.31-1.15,5.63-2.32,11.23l-1.59,6a8.76,8.76,0,0,0-1.46,4.46q-2.61,5.61-5.23,11.21l-3.71,5.67q-2.64,2.79-5.3,5.56L727,671.81a34.06,34.06,0,0,1-11.2,2.3H714.2l-1.43-.07-8.28-2.27-7.73-3.58C696.23,667.18,695.19,667,694.26,666.65Z" transform="translate(-679.93 -436.12)"/><path class="cls-1" d="M779.62,557.35c1.23-3.48,2.6-6.93,3.66-10.47,1-3.19,2.74-4,5.85-3,5.51,1.78,11.1,3.31,16.66,5A75.12,75.12,0,0,0,817,552.4l11.18,3.52,2.39.89c3.35.32,6,3.44,9.65,2.49,3.19,1.76,6.77,2.34,10.2,3.37L862,566.05c3.7,1.63,7.5,1.22,11.31.49l11.22-3.49c3.64-.43,6.89-2.49,10.6-2.64l.23.21.3-.07c.87.09.84-.61,1-1.14l8.75-2.58.86-.41,12.1-3.73a51.52,51.52,0,0,0,10.36-3.26c.39-.07,1,.2.86-.63l0,.11c2.25,0,4.3-.88,6.42-1.46,5.32-1.43,10.4-3.7,15.91-4.44a1.82,1.82,0,0,0,.67,1.92c.84,4.18,2.59,8,4,12q1.47,5.29,3,10.58c-.27,4.17,2.2,7.81,2.29,11.91L961.07,590a68.38,68.38,0,0,1-6.51,11.2c-1.11,1.25-2.21,2.51-3.32,3.77-1.72,1.54-3.38,3.14-5.17,4.58-1.05.84-2.89.89-2.71,2.88a6.58,6.58,0,0,0-2.62,2.23c-3.4,2.22-6.84,4.4-10.21,6.69-4.27,2.91-9.35,4.38-13.49,7.52-3.66.29-6.65,2.5-10.08,3.45l-6.66,2.06a11.46,11.46,0,0,0-4.54,1.33l-10.46.92c-3.86,1.67-8.16.89-12.08,2.18l-11.2,0-11.33-1.35-11.16-1.87-3.82-1.22c-2.75-.28-5.17-2.05-8-1.81l0,.12c.15-.77-.48-.57-.85-.69l-9.62-4a149,149,0,0,1-22.69-13.38,4.81,4.81,0,0,0-2.7-2.19q-4.24-4.31-8.48-8.63a3.91,3.91,0,0,0-2-2.37l-6.12-11.55a39.67,39.67,0,0,1-.35-11.2q.87-5.21,1.73-10.4A52,52,0,0,0,779.62,557.35Z" transform="translate(-679.93 -436.12)"/></svg>