<svg id="Layer_1" data-name="Layer 1" xmlns="http://www.w3.org/2000/svg" viewBox="0 0 240.13397 132.28917"><defs><style>.cls-1{fill:#fff;}</style></defs><title>down</title><path class="cls-1" d="M363.78742,297.95816a11.60546,11.60546,0,0,1,6.52419-10.56457,11.30282,11.30282,0,0,1,12.06827.60063,29.11879,29.11879,0,0,1,4.48856,3.94852Q433.947,338.98037,480.94027,386.103c2.26515,2.27687,3.34071,2.44524,5.72027.0515q47.57865-47.86207,95.38463-95.49813c5.86948-5.867,13.51155-6.22272,18.51421-.90154a11.91158,11.91158,0,0,1,.95415,15.44935,30.035,30.035,0,0,1-3.02147,3.32244q-52.0845,52.10607-104.18537,104.1958c-7.29619,7.29535-13.70288,7.33241-20.93378.10311Q421.26984,360.7343,369.16818,308.64162C366.18169,305.65746,363.59315,302.534,363.78742,297.95816Z" transform="translate(-363.77715 -285.93164)"/></svg>