<svg id="Layer_1" data-name="Layer 1" xmlns="http://www.w3.org/2000/svg" xmlns:xlink="http://www.w3.org/1999/xlink" viewBox="0 0 1723.58 1932.16"><defs><style>.cls-1{fill:#1a81b5;}.cls-2{fill:#1c1b52;}.cls-3{fill:#fff;}.cls-4{fill:url(#linear-gradient);}.cls-5{fill:url(#linear-gradient-2);}.cls-6{fill:url(#linear-gradient-3);}.cls-7{fill:url(#linear-gradient-4);}.cls-8{fill:url(#linear-gradient-5);}</style><linearGradient id="linear-gradient" x1="416.29" y1="674.65" x2="442.25" y2="674.65" gradientUnits="userSpaceOnUse"><stop offset="0" stop-color="#1a81b5"/><stop offset="0.53" stop-color="#1b5a8f"/><stop offset="1" stop-color="#1c1b52"/></linearGradient><linearGradient id="linear-gradient-2" x1="1421.27" y1="884.72" x2="1445.84" y2="884.72" xlink:href="#linear-gradient"/><linearGradient id="linear-gradient-3" x1="400.62" y1="617.22" x2="630.23" y2="617.22" xlink:href="#linear-gradient"/><linearGradient id="linear-gradient-4" x1="1441.35" y1="839.63" x2="1600.88" y2="839.63" xlink:href="#linear-gradient"/><linearGradient id="linear-gradient-5" x1="1901.06" y1="1189.25" x2="2332.42" y2="1189.25" xlink:href="#linear-gradient"/></defs><title>logo</title><path class="cls-1" d="M1055.61,2019.79l42.07,90.2h-9.74l-14.18-29.68H1034.9L1020.84,2110h-10.05l42.62-90.2Zm-1.14,19.16L1039,2071.6h30.84Z" transform="translate(-995.61 -180.1)"/><path class="cls-1" d="M1137.11,2093.19l7.66-4.6q8.1,14.89,18.71,14.9a17.92,17.92,0,0,0,8.52-2.11,15,15,0,0,0,6.07-5.68,14.66,14.66,0,0,0,2.08-7.54,15.31,15.31,0,0,0-3.06-8.89q-4.23-6-15.45-14.47t-14.05-12.33a22.52,22.52,0,0,1-4.78-13.8,21,21,0,0,1,2.82-10.73,20.12,20.12,0,0,1,7.94-7.63,22.9,22.9,0,0,1,11.13-2.79,23.69,23.69,0,0,1,11.93,3.16q5.55,3.15,11.74,11.62l-7.36,5.58q-5.09-6.75-8.67-8.89a15,15,0,0,0-7.82-2.15,12.35,12.35,0,0,0-8.92,3.31,10.85,10.85,0,0,0-3.47,8.16,13.86,13.86,0,0,0,1.23,5.7,21,21,0,0,0,4.47,6q1.79,1.71,11.65,9,11.71,8.66,16.07,15.39a24.85,24.85,0,0,1,4.35,13.56,23,23,0,0,1-7.45,17,25,25,0,0,1-18.12,7.24,26.63,26.63,0,0,1-14.9-4.38Q1142.76,2103.48,1137.11,2093.19Z" transform="translate(-995.61 -180.1)"/><path class="cls-1" d="M1207.5,2043.27h8.59v11.53a33.15,33.15,0,0,1,9.21-9.32,26.13,26.13,0,0,1,13.69-3.92,22.69,22.69,0,0,1,9.2,1.9,19.76,19.76,0,0,1,7.13,5.06,27.3,27.3,0,0,1,4.79,9,31.7,31.7,0,0,1,10.7-11.93,25.39,25.39,0,0,1,13.83-4.07,21.62,21.62,0,0,1,12.2,3.49,20.81,20.81,0,0,1,7.86,9.75q2.57,6.25,2.57,18.77V2110h-8.77v-36.42q0-10.74-1.53-14.75a13.22,13.22,0,0,0-5.22-6.47,15.58,15.58,0,0,0-8.83-2.45,19.15,19.15,0,0,0-11.4,3.68,21.17,21.17,0,0,0-7.55,9.81q-2.38,6.14-2.38,20.48V2110H1253v-34.16q0-12.07-1.5-16.4a13.76,13.76,0,0,0-5.24-6.93,15.23,15.23,0,0,0-8.89-2.6,19.17,19.17,0,0,0-11.13,3.58,21.28,21.28,0,0,0-7.67,9.66q-2.47,6.08-2.48,18.58V2110h-8.59Z" transform="translate(-995.61 -180.1)"/><path class="cls-1" d="M1391.83,2043.27V2110h-8.46v-11.47a36.77,36.77,0,0,1-12.11,9.88,33.84,33.84,0,0,1-38.88-7,34.46,34.46,0,0,1-10-25,33.82,33.82,0,0,1,10.11-24.65,33,33,0,0,1,24.35-10.24,31.49,31.49,0,0,1,14.87,3.49,33.88,33.88,0,0,1,11.68,10.49v-12.27Zm-34.31,6.56a25.9,25.9,0,0,0-22.87,13.42,27,27,0,0,0,0,26.95,26.23,26.23,0,0,0,9.7,10,25.41,25.41,0,0,0,13.08,3.59,26.76,26.76,0,0,0,13.35-3.56,24.73,24.73,0,0,0,9.71-9.61,27.41,27.41,0,0,0,3.4-13.66,26.57,26.57,0,0,0-7.62-19.36A25.31,25.31,0,0,0,1357.52,2049.83Z" transform="translate(-995.61 -180.1)"/><path class="cls-1" d="M1407.9,2043.27h8.77V2053a30.71,30.71,0,0,1,8.27-8.61,16.36,16.36,0,0,1,9.08-2.85,15.55,15.55,0,0,1,7.6,2.27l-4.47,7.23a12,12,0,0,0-4.54-1.16,12.42,12.42,0,0,0-8.28,3.52q-4,3.52-6.07,10.95-1.59,5.7-1.59,23.05V2110h-8.77Z" transform="translate(-995.61 -180.1)"/><path class="cls-1" d="M1456.4,2018.5H1465v24.77h13.61v7.42H1465V2110h-8.59v-59.3h-11.71v-7.42h11.71Z" transform="translate(-995.61 -180.1)"/><path class="cls-1" d="M1564.51,2019.79l42.07,90.2h-9.74l-14.19-29.68h-38.86l-14,29.68h-10.06l42.62-90.2Zm-1.14,19.16-15.46,32.65h30.84Z" transform="translate(-995.61 -180.1)"/><path class="cls-1" d="M1683.9,2057.13l-6.81,4.23q-8.82-11.7-24.07-11.71-12.18,0-20.24,7.84a25.59,25.59,0,0,0-8,19.05,27,27,0,0,0,3.7,13.72,25.88,25.88,0,0,0,10.17,10,29.53,29.53,0,0,0,14.48,3.56q14.7,0,24-11.72l6.81,4.48a32.18,32.18,0,0,1-12.85,11.18,41.09,41.09,0,0,1-18.36,4q-15.82,0-26.25-10.06a32.71,32.71,0,0,1-10.42-24.47,34.94,34.94,0,0,1,4.87-18,34.31,34.31,0,0,1,13.4-13,39.05,39.05,0,0,1,19.07-4.66,40.7,40.7,0,0,1,12.79,2,35.66,35.66,0,0,1,10.45,5.27A28.75,28.75,0,0,1,1683.9,2057.13Z" transform="translate(-995.61 -180.1)"/><path class="cls-1" d="M1766.87,2043.27V2110h-8.47v-11.47a36.67,36.67,0,0,1-12.11,9.88,33.83,33.83,0,0,1-38.87-7,34.43,34.43,0,0,1-10-25,33.79,33.79,0,0,1,10.12-24.65,33,33,0,0,1,24.34-10.24,31.46,31.46,0,0,1,14.87,3.49,33.79,33.79,0,0,1,11.68,10.49v-12.27Zm-34.31,6.56a25.93,25.93,0,0,0-22.88,13.42,27.05,27.05,0,0,0,0,26.95,26.25,26.25,0,0,0,9.71,10,25.35,25.35,0,0,0,13.08,3.59,26.81,26.81,0,0,0,13.35-3.56,24.86,24.86,0,0,0,9.71-9.61A27.52,27.52,0,0,0,1759,2077a26.58,26.58,0,0,0-7.63-19.36A25.27,25.27,0,0,0,1732.56,2049.83Z" transform="translate(-995.61 -180.1)"/><path class="cls-1" d="M1852.78,2017.52V2110h-8.47v-11.47a36.67,36.67,0,0,1-12.11,9.88,33.83,33.83,0,0,1-38.87-7,34.43,34.43,0,0,1-10-25,33.79,33.79,0,0,1,10.12-24.65,33,33,0,0,1,24.34-10.24,31.46,31.46,0,0,1,14.87,3.49,33.79,33.79,0,0,1,11.68,10.49v-38Zm-34.31,32.31a25.93,25.93,0,0,0-22.88,13.42,27.05,27.05,0,0,0,0,26.95,26.25,26.25,0,0,0,9.71,10,25.35,25.35,0,0,0,13.08,3.59,26.81,26.81,0,0,0,13.35-3.56,24.86,24.86,0,0,0,9.71-9.61,27.52,27.52,0,0,0,3.4-13.66,26.58,26.58,0,0,0-7.63-19.36A25.27,25.27,0,0,0,1818.47,2049.83Z" transform="translate(-995.61 -180.1)"/><path class="cls-1" d="M1928.38,2087.85l7.24,3.81a39.38,39.38,0,0,1-8.23,11.28,32.5,32.5,0,0,1-10.49,6.53,36.69,36.69,0,0,1-13.2,2.24q-16.32,0-25.53-10.7a36.11,36.11,0,0,1-9.21-24.19,35.64,35.64,0,0,1,7.8-22.63q9.88-12.63,26.45-12.63,17.07,0,27.25,12.94,7.24,9.14,7.37,22.81h-60q.26,11.63,7.43,19.05a23.7,23.7,0,0,0,17.75,7.44,28.53,28.53,0,0,0,9.91-1.77,26.2,26.2,0,0,0,8.2-4.71A40,40,0,0,0,1928.38,2087.85Zm0-18a28.4,28.4,0,0,0-5-11,23.62,23.62,0,0,0-8.69-6.62,26.56,26.56,0,0,0-11.36-2.52,24.46,24.46,0,0,0-16.88,6.32q-5.16,4.6-7.8,13.8Z" transform="translate(-995.61 -180.1)"/><path class="cls-1" d="M1953.77,2043.27h8.59v11.53a33.13,33.13,0,0,1,9.2-9.32,26.19,26.19,0,0,1,13.69-3.92,22.7,22.7,0,0,1,9.21,1.9,19.72,19.72,0,0,1,7.12,5.06,27.12,27.12,0,0,1,4.79,9,31.72,31.72,0,0,1,10.71-11.93,25.38,25.38,0,0,1,13.82-4.07,21.65,21.65,0,0,1,12.21,3.49,20.81,20.81,0,0,1,7.86,9.75q2.57,6.25,2.57,18.77V2110h-8.77v-36.42q0-10.74-1.53-14.75a13.27,13.27,0,0,0-5.22-6.47,15.59,15.59,0,0,0-8.84-2.45,19.14,19.14,0,0,0-11.39,3.68,21.11,21.11,0,0,0-7.55,9.81q-2.38,6.14-2.39,20.48V2110h-8.58v-34.16q0-12.07-1.5-16.4a13.73,13.73,0,0,0-5.25-6.93,15.18,15.18,0,0,0-8.89-2.6,19.21,19.21,0,0,0-11.13,3.58,21.26,21.26,0,0,0-7.66,9.66q-2.49,6.08-2.48,18.58V2110h-8.59Z" transform="translate(-995.61 -180.1)"/><path class="cls-1" d="M2074.6,2015.8a7.09,7.09,0,0,1,0,14.17,7.12,7.12,0,0,1-7-7,6.84,6.84,0,0,1,2.08-5A6.73,6.73,0,0,1,2074.6,2015.8Zm-4.26,27.47h8.58V2110h-8.58Z" transform="translate(-995.61 -180.1)"/><path class="cls-1" d="M2161.52,2057.13l-6.8,4.23q-8.82-11.7-24.07-11.71-12.2,0-20.25,7.84a25.59,25.59,0,0,0-8.05,19.05,27,27,0,0,0,3.7,13.72,25.88,25.88,0,0,0,10.17,10,29.57,29.57,0,0,0,14.49,3.56q14.7,0,24-11.72l6.8,4.48a32.22,32.22,0,0,1-12.84,11.18,41.16,41.16,0,0,1-18.37,4q-15.82,0-26.24-10.06a32.72,32.72,0,0,1-10.43-24.47,35,35,0,0,1,4.88-18,34.25,34.25,0,0,1,13.4-13,39,39,0,0,1,19.07-4.66,40.69,40.69,0,0,1,12.78,2,35.85,35.85,0,0,1,10.46,5.27A28.72,28.72,0,0,1,2161.52,2057.13Z" transform="translate(-995.61 -180.1)"/><path class="cls-1" d="M2251.05,2019.79l42.07,90.2h-9.74l-14.19-29.68h-38.86l-14,29.68h-10.05l42.61-90.2Zm-1.14,19.16-15.45,32.65h30.83Z" transform="translate(-995.61 -180.1)"/><path class="cls-1" d="M2339.23,2050.57l-5.52,5.7q-6.89-6.67-13.46-6.68a10.19,10.19,0,0,0-7.17,2.76,8.54,8.54,0,0,0-3,6.44,9.52,9.52,0,0,0,2.46,6.19q2.46,3,10.32,7.05,9.59,5,13,9.57a17.44,17.44,0,0,1,3.38,10.48,18.81,18.81,0,0,1-5.77,13.92,19.68,19.68,0,0,1-14.43,5.71,25.19,25.19,0,0,1-11-2.52,23.79,23.79,0,0,1-8.69-6.93l5.4-6.13q6.57,7.42,13.95,7.42a12.57,12.57,0,0,0,8.79-3.31,10.21,10.21,0,0,0,3.62-7.79,10,10,0,0,0-2.39-6.56q-2.4-2.82-10.82-7.11-9-4.67-12.29-9.2a17.32,17.32,0,0,1-3.25-10.36,16.88,16.88,0,0,1,5.19-12.64,18.08,18.08,0,0,1,13.11-5Q2329.89,2041.56,2339.23,2050.57Z" transform="translate(-995.61 -180.1)"/><path class="cls-1" d="M2388,2050.57l-5.52,5.7q-6.89-6.67-13.46-6.68a10.19,10.19,0,0,0-7.17,2.76,8.54,8.54,0,0,0-3,6.44,9.52,9.52,0,0,0,2.46,6.19q2.46,3,10.32,7.05,9.59,5,13,9.57a17.44,17.44,0,0,1,3.38,10.48,18.81,18.81,0,0,1-5.77,13.92,19.68,19.68,0,0,1-14.43,5.71,25.19,25.19,0,0,1-11-2.52,23.79,23.79,0,0,1-8.69-6.93l5.4-6.13q6.57,7.42,13.95,7.42a12.57,12.57,0,0,0,8.79-3.31,10.21,10.21,0,0,0,3.62-7.79,10,10,0,0,0-2.39-6.56q-2.4-2.82-10.82-7.11-9-4.67-12.29-9.2a17.32,17.32,0,0,1-3.25-10.36,16.88,16.88,0,0,1,5.19-12.64,18.08,18.08,0,0,1,13.11-5Q2378.64,2041.56,2388,2050.57Z" transform="translate(-995.61 -180.1)"/><path class="cls-1" d="M2406.16,2015.8a7.09,7.09,0,0,1,0,14.17,7.1,7.1,0,0,1-7-7,6.87,6.87,0,0,1,2.07-5A6.77,6.77,0,0,1,2406.16,2015.8Zm-4.26,27.47h8.58V2110h-8.58Z" transform="translate(-995.61 -180.1)"/><path class="cls-1" d="M2461.87,2050.57l-5.52,5.7q-6.88-6.67-13.46-6.68a10.19,10.19,0,0,0-7.17,2.76,8.54,8.54,0,0,0-3,6.44,9.52,9.52,0,0,0,2.46,6.19q2.46,3,10.32,7.05,9.6,5,13,9.57a17.44,17.44,0,0,1,3.38,10.48,18.81,18.81,0,0,1-5.77,13.92,19.68,19.68,0,0,1-14.43,5.71,25.19,25.19,0,0,1-11-2.52,23.79,23.79,0,0,1-8.69-6.93l5.4-6.13q6.57,7.42,14,7.42a12.57,12.57,0,0,0,8.79-3.31,10.22,10.22,0,0,0,3.63-7.79,10,10,0,0,0-2.4-6.56q-2.4-2.82-10.82-7.11-9-4.67-12.29-9.2a17.32,17.32,0,0,1-3.25-10.36,16.88,16.88,0,0,1,5.19-12.64,18.08,18.08,0,0,1,13.11-5Q2452.53,2041.56,2461.87,2050.57Z" transform="translate(-995.61 -180.1)"/><path class="cls-1" d="M2484.56,2018.5h8.58v24.77h13.62v7.42h-13.62V2110h-8.58v-59.3h-11.71v-7.42h11.71Z" transform="translate(-995.61 -180.1)"/><path class="cls-1" d="M2586.1,2043.27V2110h-8.46v-11.47a36.77,36.77,0,0,1-12.11,9.88,33.84,33.84,0,0,1-38.88-7,34.46,34.46,0,0,1-10-25,33.79,33.79,0,0,1,10.12-24.65,33,33,0,0,1,24.34-10.24,31.49,31.49,0,0,1,14.87,3.49,33.79,33.79,0,0,1,11.68,10.49v-12.27Zm-34.3,6.56a25.93,25.93,0,0,0-22.88,13.42,27.05,27.05,0,0,0,0,26.95,26.18,26.18,0,0,0,9.71,10,25.35,25.35,0,0,0,13.07,3.59,26.82,26.82,0,0,0,13.36-3.56,24.76,24.76,0,0,0,9.7-9.61,27.41,27.41,0,0,0,3.4-13.66,26.57,26.57,0,0,0-7.62-19.36A25.29,25.29,0,0,0,2551.8,2049.83Z" transform="translate(-995.61 -180.1)"/><path class="cls-1" d="M2605.42,2043.27H2614v12a36,36,0,0,1,11.41-10.27,28,28,0,0,1,13.61-3.4,23.61,23.61,0,0,1,13.28,3.8,22.65,22.65,0,0,1,8.55,10.24q2.76,6.43,2.76,20.05V2110H2655v-31.82q0-11.53-1-15.4-1.49-6.61-5.72-10t-11-3.34a21.14,21.14,0,0,0-13.95,5.15,24.11,24.11,0,0,0-8.13,12.75q-1.23,5-1.23,18.15V2110h-8.58Z" transform="translate(-995.61 -180.1)"/><path class="cls-1" d="M2689.49,2018.5h8.59v24.77h13.61v7.42h-13.61V2110h-8.59v-59.3h-11.71v-7.42h11.71Z" transform="translate(-995.61 -180.1)"/><path class="cls-2" d="M2717.25,1007.22c-12.78-28.92-24.47-58.38-38.55-86.64-27.75-55.71-65.23-104.51-110-147.67-8.21-7.92-11.8-14.45-6.91-26.86,16.22-41.19,2.65-85.67-31.95-111.21-33.19-24.5-82.64-24-116,3.37-11.13,9.17-18.4,9.69-30.6,3.07-120.39-65.34-250.23-100-385.33-117.36-39.11-5-78-13.63-117.19-15.57-35-1.72-70.66,1.47-105.52,6.24-34.06,4.67-67.48,14.08-104.39,22.1,13.25-9.2,24.54-18.06,36.77-25.38,80-47.87,163.22-88.71,253.33-114,14.08-3.95,21.79-7.72,21.06-26-1.49-37.72,28.94-71.29,65.52-77.53,36.26-6.19,75.35,14.39,86.3,49.66,6.29,20.24,17.34,21.85,34.8,21.61,110.81-1.54,213.94,23.3,306,88.29,38.94,27.48,67.33,63.81,93.49,102.1,88.28,129.24,138.59,271.94,148.66,428.48.49,7.53,1.57,15,2.38,22.54Z" transform="translate(-995.61 -180.1)"/><path class="cls-2" d="M1814.23,182c-30.65,13.82-62,26.23-91.8,41.78-51.33,26.83-96.12,62.82-136.15,104.61-7.83,8.17-14,11.93-26.51,7-40.5-16.15-81.28-2.58-108.1,33.79-23.9,32.42-24.22,78.5,1.66,110.13,9.72,11.88,9.53,19.75,2.47,32.5-58.28,105.27-92.71,218.74-112.22,336.89-8.44,51.13-16.18,102.55-20.43,154.15-6.37,77.36,4.22,153.1,29.14,228-3.68-4.91-7.68-9.62-11-14.77-55.75-87.33-102.6-178.84-130.68-279.13-3.62-12.9-6.53-23.44-25.4-23.07-36.94.71-67.26-27.35-73.73-63.65s12.33-73.57,46.79-85.72c16.76-5.91,20.16-14.22,19.6-30.13-3.7-105.67,18.71-204.81,75.75-295,40.3-63.74,102-102.71,164.28-140.34,94.12-56.84,196.49-92.11,304.79-109.78,29.94-4.88,60.47-6.18,90.72-9.12Z" transform="translate(-995.61 -180.1)"/><path class="cls-2" d="M2369.91,865.94c24.83,46,52.06,91,73.83,138.42,21.57,47,38.08,96.44,55.81,145.17,4.18,11.5,8.81,17.74,21.85,15.94,34.93-4.82,75.75,23.65,81.76,64.33,6.32,42.77-14.23,76.86-56.21,89.44-13.76,4.12-14.81,11.43-14.43,22.63,2.09,61.28-2.17,121.88-20.24,180.91-30.7,100.32-87.65,179.88-177.39,237.22-117.69,75.2-244.53,122.6-383,139.16-15.12,1.81-30.3,3.1-45.46,4.49a23.6,23.6,0,0,1-11.27-1.64q142.14-50.67,243.07-162.09c43.86,19.09,83.42,16.13,116.74-19.31s35-83.27,4.77-123c-6.22-8.19-10.73-14.21-4.69-25.4,66.62-123.49,99.6-256.92,121-394.75,11.47-73.83,20.69-146.6,7.86-220.62-5.14-29.62-12.49-58.85-18.82-88.26Z" transform="translate(-995.61 -180.1)"/><path class="cls-2" d="M2037.3,1546.93q-140.33,98.21-305.49,145.2c3.09,32.51-5.52,59.16-30.66,78.44-41,31.46-100.38,16.38-119.3-32-6.78-17.32-16-20.32-32-19.85-69.75,2.08-138.1-5.4-204.18-29.9-73.73-27.34-135.77-68.55-183.1-133.45-97.27-133.37-151.75-281.86-166.75-445.56-.5-5.44-.06-11-.06-22.59,8.29,19.62,14,34.11,20.47,48.29,30.22,66.48,74,123.32,125.44,174.52,9.6,9.56,14,17.1,8.83,32.1-12.36,35.79,2.27,77.64,31.74,100.65,30.8,24.06,74.26,27.18,108.81,3.82,15.46-10.46,26.26-8.55,40.79-1,121.76,63.28,251.27,100.59,387.63,115,26.09,2.77,51.76,9.51,77.86,12.25C1879,1581.54,1958.8,1572.7,2037.3,1546.93Z" transform="translate(-995.61 -180.1)"/><path class="cls-1" d="M2411.55,387.32c-40.51-11.23-81.72-25.56-124.12-33.52-37.16-7-75.65-7.21-113.6-9.52-11.34-.69-18.63-3-24.29-14.46-19.71-40-61.36-62-102.25-55.81-43.94,6.61-74.17,37.34-84.44,83.28-1.88,8.4-9.06,20-16.22,22.19C1803.88,423,1679.29,498.69,1561.94,589.13c-51.38,39.6-100.37,80.68-139.35,132.62-14.86,19.81-27.51,41.29-43.26,65.19.45-7.22.13-11.49,1.05-15.49,21.33-93.08,54.63-181.65,101.16-265.09,6.32-11.33,7-19-3.61-28.72a74,74,0,0,1-12.69-94.56c19.06-30.19,59.43-44,93-28.16,17.69,8.35,27.19,3.79,39.19-8.49,61.36-62.79,131.68-111.4,215.68-140.3,70-24.08,140-21.95,210.7-7.83,144.27,28.83,272,92.49,385.2,185.84A11.63,11.63,0,0,1,2411.55,387.32Z" transform="translate(-995.61 -180.1)"/><path class="cls-1" d="M2112.06,565.76a945.89,945.89,0,0,1,266.1,96.3c17.68,9.55,29.64,12.8,45.8-5.45,22.44-25.33,65.36-25.76,93.8-6.1,26.94,18.63,38.86,57.45,22.84,89.3C2530.09,760.7,2536.29,772,2551,786c81,77,137.07,167.89,154.58,280.39,8.83,56.79.24,111.7-12.09,166.64-29.84,133.07-89.4,251.42-176.28,356.26-2.19,2.64-3.74,5.8-9.55,6,1.87-5.31,3.56-10.7,5.65-15.93,29.32-73.67,43.41-149.84,40-229.35-.27-6.2,9.61-15,16.77-19,35.18-19.8,54.75-49.41,54.13-89.43-.64-41-22.15-70.38-58.94-88.41-3.1-1.52-6.43-3.8-9.61-3.73-33.35.66-41.62-21.6-50.5-48.58C2466,981.78,2403.68,875,2327,776.26c-13.57-17.48-24.88-36.69-37.93-54.6C2241.77,656.71,2181,607.11,2112.06,565.76Z" transform="translate(-995.61 -180.1)"/><path class="cls-1" d="M1303.79,1698.2c57.13,20.71,115.23,35,175.48,39.75,20.66,1.62,41.46,2.31,62.19,2.11,12.44-.12,19.94,3.64,26.47,15,21.62,37.65,61.16,57.12,98.88,50.59,45-7.8,74.34-36.94,82.17-84.2,2.58-15.57,13.49-17.69,24.5-21.23,117.12-37.72,224.4-94.31,322.73-168.1,37.08-27.83,75.23-54.36,110.94-83.86,50-41.31,89.88-91.67,125.8-147-7.67,28-13,56.82-23.47,83.73-23.46,60.58-48.88,120.44-74.74,180-6.59,15.18-10.75,24.93,4.36,39.28,26,24.67,26.82,70.19,6.08,97.51-21.43,28.22-61.27,36.85-95.23,18.58-13.46-7.25-20.46-1.63-28.4,7-48.42,52.43-103.58,95.81-168.38,126.53-75.21,35.66-152.8,49.16-236.09,34.67-152.24-26.48-288.42-86.56-407.4-185.31C1307.69,1701.63,1305.75,1699.9,1303.79,1698.2Z" transform="translate(-995.61 -180.1)"/><path class="cls-1" d="M1603.14,1518.45a934.67,934.67,0,0,1-208-64.79c-24-10.68-47.56-22.58-70.85-34.82-12.59-6.61-22.06-6.53-33.55,3.56-29.89,26.27-64.36,27.67-95.1,5.86-28.18-20-37.9-55.6-22.2-90.93,7-15.79,1-24.61-9.34-34.12-51.12-46.86-92.47-101.07-123.1-163.42-37.94-77.22-48.06-157.36-32.37-242.36,27.52-149.06,87.89-282.37,183.32-400,1.63-2,3.74-3.63,9.69-9.31-9.05,25.07-19.4,44.49-22.83,65.06-9.17,55.14-16,110.69-22.29,166.25-1.58,14-3.27,23.88-17.22,31.8-36.67,20.8-55.5,60.28-48.41,100,7.67,43,33.59,71,76.12,81.25,15.45,3.73,23.21,10.67,28.07,25.78,43.16,134.18,112,254.17,199.09,364.75,43.9,55.74,87.06,111.45,145.51,152.92C1560.42,1490.71,1582,1504.33,1603.14,1518.45Z" transform="translate(-995.61 -180.1)"/><polygon class="cls-1" points="889.3 1085.04 889.3 731.38 932.38 706.93 932.38 679.57 751.91 679.57 751.91 868.19 738.52 868.19 620.35 607.38 458.5 607.38 458.5 968.9 416.01 995.1 416.01 1020.71 597.64 1020.71 597.64 828.02 610.45 828.02 728.63 1084.17 889.3 1085.04"/><rect class="cls-3" x="501" y="732.67" width="26.78" height="26.78"/><rect class="cls-3" x="539.72" y="732.67" width="26.78" height="26.78"/><rect class="cls-3" x="501" y="774.59" width="26.78" height="26.78"/><rect class="cls-3" x="539.72" y="774.59" width="26.78" height="26.78"/><rect class="cls-3" x="495.04" y="876.92" width="26.78" height="26.78"/><rect class="cls-3" x="533.75" y="876.92" width="26.78" height="26.78"/><rect class="cls-3" x="495.04" y="918.83" width="26.78" height="26.78"/><rect class="cls-3" x="533.75" y="918.83" width="26.78" height="26.78"/><circle class="cls-4" cx="429.27" cy="674.65" r="12.98"/><path class="cls-5" d="M1421.66,867.32s-2.29,19.87,4.22,38.61l20-4.47s-5.41-30.51-13.73-35.93S1421.66,867.32,1421.66,867.32Z" transform="translate(-995.61 -180.1)"/><polygon class="cls-6" points="424 662.79 419.69 643.61 400.63 639.83 504.15 567.71 630.23 588.55 526.13 660.99 424.18 643.95 428.32 661.56 428.71 666.72 424 662.79"/><path class="cls-7" d="M1441.35,833.8l9.4,45.36s10.09-14.06,30.61-17.5,36.14-5.61,46.49,7.6c0,0,2.43-19.53,30.11-24.4s25.93-5.81,42.92.64l-9.22-45.4-68.6,47.79Z" transform="translate(-995.61 -180.1)"/><path class="cls-8" d="M1967,1159.29h-27.8V1148c0-5.25-.35-8.6-1.06-10a3.68,3.68,0,0,0-3.56-2.16q-2.7,0-4.09,2.91t-1.38,8.82q0,7.59,1.55,11.44t8.46,9.29q20,15.63,25.18,25.67t5.19,32.35q0,16.22-2.88,23.91t-11.13,12.89a35.15,35.15,0,0,1-19.19,5.2q-12,0-20.51-6a27.54,27.54,0,0,1-11.13-15.28q-2.64-9.29-2.63-26.35v-9.94h27.8v18.48q0,8.52,1.17,11a4.22,4.22,0,0,0,4.16,2.43,4.71,4.71,0,0,0,4.44-3.09c1-2.06,1.46-5.13,1.46-9.19q0-13.41-2.77-17.53t-14-13.79q-11.16-9.75-14.79-14.15a35.61,35.61,0,0,1-6-12.19q-2.37-7.79-2.38-19.88,0-17.44,3.38-25.5a26.2,26.2,0,0,1,10.91-12.61q7.55-4.56,18.21-4.55,11.65,0,19.87,5t10.88,12.52q2.65,7.55,2.66,25.64Z" transform="translate(-995.61 -180.1)"/><path class="cls-8" d="M2046.89,1113.35V1214.8q0,17.25-.85,24.23a38.65,38.65,0,0,1-5,14.35,28.67,28.67,0,0,1-11.06,11.16,32.87,32.87,0,0,1-16.17,3.79,36.14,36.14,0,0,1-18.21-4.5,29.76,29.76,0,0,1-11.8-11.72,38.76,38.76,0,0,1-4.62-15.23q-.7-8-.71-33.71v-89.82h29.93v113.82q0,9.94.82,12.71c.54,1.84,1.65,2.76,3.31,2.76q2.83,0,3.66-3t.82-14.4V1113.35Z" transform="translate(-995.61 -180.1)"/><path class="cls-8" d="M2135.89,1113.35l17.11,151.8h-30.58l-1.61-27.29H2110.1l-1.8,27.29h-30.94l15.26-151.8ZM2120,1211q-2.26-25.79-4.56-63.76-4.56,43.61-5.74,63.76Z" transform="translate(-995.61 -180.1)"/><path class="cls-8" d="M2188,1113.35v151.8h-29.93v-151.8Z" transform="translate(-995.61 -180.1)"/><path class="cls-8" d="M2200,1113.35h22.39q21.69,0,29.33,2.62a22,22,0,0,1,11.63,8.63,31.44,31.44,0,0,1,5,13.36q1,7.36,1,28.92v53.17q0,20.43-1.46,27.33t-5.08,10.78a19.38,19.38,0,0,1-9,5.44q-5.33,1.55-16.07,1.55H2200Zm29.93,26v99.85c4.31,0,7-1.14,8-3.42s1.5-8.48,1.5-18.61v-59a104.38,104.38,0,0,0-.5-13.22,6.45,6.45,0,0,0-2.28-4.26Q2234.88,1139.32,2230,1139.32Z" transform="translate(-995.61 -180.1)"/><path class="cls-8" d="M2280.52,1113.35h49.91v30.38h-20v28.78h18.69v28.88h-18.69v33.38h22v30.38h-51.9Z" transform="translate(-995.61 -180.1)"/><rect class="cls-3" x="788.74" y="825.75" width="26.78" height="26.78"/><rect class="cls-3" x="827.45" y="825.75" width="26.78" height="26.78"/><rect class="cls-3" x="788.74" y="867.67" width="26.78" height="26.78"/><rect class="cls-3" x="827.45" y="867.67" width="26.78" height="26.78"/><rect class="cls-3" x="782.77" y="970" width="26.78" height="26.78"/><rect class="cls-3" x="821.48" y="970" width="26.78" height="26.78"/><rect class="cls-3" x="782.77" y="1011.91" width="26.78" height="26.78"/><rect class="cls-3" x="821.48" y="1011.91" width="26.78" height="26.78"/></svg>