<svg id="Layer_2" data-name="Layer 2" xmlns="http://www.w3.org/2000/svg" viewBox="0 0 672.27 672.27"><defs><style>.cls-1{fill:#f4c92d;}.cls-2{fill:#e8a41f;}.cls-3{fill:#efe9db;}.cls-4{fill:#e2dac3;}.cls-5{fill:#e3d9c5;}.cls-6{fill:#e3dac3;}.cls-7{fill:#cdc19d;}.cls-8{fill:#733316;}</style></defs><title>note</title><circle class="cls-1" cx="336.13" cy="336.13" r="336.13"/><path class="cls-2" d="M1009.65,368.45a339.2,339.2,0,0,0-3.86-51.12L856.21,167.75,846,205.3s-25.62,146.43-26.16,145.62-3,135.37-3,135.37L812,536.72,546.37,556.67l-54.52,40,97.26,97.26a336.47,336.47,0,0,0,84.41,10.69C859.16,704.58,1009.65,554.09,1009.65,368.45Z" transform="translate(-337.38 -32.31)"/><rect class="cls-3" x="154.79" y="134.7" width="364.04" height="429.3"/><rect class="cls-4" x="336.13" y="134.7" width="182.7" height="429.3"/><rect class="cls-4" x="206.29" y="235.82" width="258.88" height="16.18"/><rect class="cls-4" x="207.37" y="283.55" width="258.88" height="16.18"/><rect class="cls-4" x="206.83" y="331.28" width="258.88" height="16.18"/><rect class="cls-4" x="207.91" y="379.01" width="258.88" height="16.18"/><rect class="cls-5" x="206.16" y="426.74" width="258.88" height="16.18"/><rect class="cls-6" x="207.24" y="474.47" width="258.88" height="16.18"/><rect class="cls-7" x="336.13" y="235.82" width="128.36" height="16.18"/><rect class="cls-7" x="336.13" y="283.55" width="128.36" height="16.18"/><rect class="cls-7" x="336.13" y="331.28" width="128.36" height="16.18"/><rect class="cls-7" x="336.13" y="379.01" width="128.36" height="16.18"/><rect class="cls-7" x="336.13" y="426.74" width="128.36" height="16.18"/><rect class="cls-7" x="336.13" y="474.47" width="128.36" height="16.18"/><polygon class="cls-2" points="227.73 105.98 259.45 137.7 218.63 137.7 227.73 105.98"/><polygon class="cls-2" points="310.05 105.98 341.76 137.7 300.94 137.7 310.05 105.98"/><polygon class="cls-2" points="391.95 105.98 423.67 137.7 382.85 137.7 391.95 105.98"/><polygon class="cls-2" points="474.27 105.98 505.99 137.7 465.17 137.7 474.27 105.98"/><rect class="cls-8" x="199.15" y="104.9" width="28.58" height="61.08"/><rect class="cls-8" x="281.66" y="104.9" width="28.58" height="61.08"/><rect class="cls-8" x="363.64" y="104.9" width="28.58" height="61.08"/><rect class="cls-8" x="445.21" y="104.9" width="28.58" height="61.08"/></svg>