<svg id="Layer_2" data-name="Layer 2" xmlns="http://www.w3.org/2000/svg" viewBox="0 0 186.94 293.95"><defs><style>.cls-1{fill:#fff;}</style></defs><title>right</title><path class="cls-1" d="M533.6,246.11a35.73,35.73,0,0,0-4-3.61,14.59,14.59,0,0,0-18.91,1.17c-6.51,6.13-6.08,15.48,1.11,22.67q58.4,58.43,116.9,116.76c2.93,2.91,2.72,4.23-.07,7Q570.9,447.55,513.39,505.25a35.92,35.92,0,0,0-4.83,5.5,13.82,13.82,0,0,0-.74,14.77,14.23,14.23,0,0,0,12.93,8c5.55.23,9.35-2.87,13-6.48a14.14,14.14,0,0,0,12,6.48c5.61.23,9.43-2.94,13.08-6.59q63.75-63.79,127.53-127.56c8.85-8.85,8.81-16.69-.12-25.62Q622.48,310,558.69,246.2a37.53,37.53,0,0,0-4.07-3.7,14.59,14.59,0,0,0-18.91,1.17A15.43,15.43,0,0,0,533.6,246.11Z" transform="translate(-506.03 -239.57)"/></svg>