<svg id="Layer_3" data-name="Layer 3" xmlns="http://www.w3.org/2000/svg" viewBox="0 0 476.85 473.25"><defs><style>.cls-1{fill:#fff;}</style></defs><title>addIcon</title><path class="cls-1" d="M397.32,292.74c4.91-19.91,16.83-31.59,35-34.28,24.12-3.58,46.21,15,46.36,39.4.24,36.16.07,72.33.08,108.49,0,14.34.14,28.67-.1,43-.06,3.71.77,4.68,4.6,4.67q75.24-.22,150.49-.07c19.65,0,35.35,11.12,40.8,28.52a40.34,40.34,0,0,1-38.31,52.39c-26.83.28-53.66.07-80.49.07q-35.25,0-70.5,0c-7.57,0-6.48-.79-6.48,6.23,0,49.83.11,99.67-.09,149.5-.06,16.69-8.16,29.07-23.11,36.23-14.74,7.05-29.27,5.47-42.39-4.35-11-8.22-16-19.61-16-33.35.05-49.5-.06-99,.15-148.5,0-5-1.37-5.92-6.06-5.9q-74.74.29-149.5.12c-24.24,0-42.49-17.94-42.16-41.16.31-22.38,18.54-39.76,42.14-39.81q75.24-.13,150.49,0c4.15,0,6-.91,4.61-5.24.09-2,.24-4,.24-6Q397.19,367.77,397.32,292.74Z" transform="translate(-199.53 -258.01)"/></svg>