<svg id="Layer_6" data-name="Layer 6" xmlns="http://www.w3.org/2000/svg" viewBox="0 0 461.11 502.3"><defs><style>.cls-1{fill:#fff;}</style></defs><title>info</title><path class="cls-1" d="M995.92,669.05a103.65,103.65,0,0,0-5.54,60.58,85.26,85.26,0,0,0,7.78,22.85c1.2,2.28-.39,2.16-1.67,2.39-9.94,1.81-19.93,3.32-30,4.44a410,410,0,0,1-48.41,2.61,419.94,419.94,0,0,1-73.19-7.12,435.23,435.23,0,0,1-78.3-22.19c-5.14-2-10.16-4.26-15.19-6.52-6.69-3-9.74-9.22-12.88-15.26-8-15.3-14.41-31.18-17.3-48.29-1.9-11.34-2.12-22.64,1.22-33.86,4.09-13.75,12.58-23.9,24.73-31.18,12.64-7.57,26.24-13.17,39.71-19,18.4-8,36.52-16.46,52.81-28.36,1.78-1.3,3.46-2.75,5.31-3.94,7.18-4.64,16.72-2,19.82,6,4.92,12.65,9.36,25.5,14,38.26q12.58,34.66,25.2,69.33a5.24,5.24,0,0,0,1.6,2.36q.95-7,1.9-14c1.57-11.65,3.11-23.32,4.74-35,.35-2.5.29-4.45-1.62-6.7-5.64-6.62-7.65-14.77-8-23.27-.2-5.12,3.84-9,9.09-9.15q9-.21,18,0c6,.14,9.74,4,9.3,10-.68,8.92-2.71,17.45-9.41,24.07-.82.81-.59,1.69-.47,2.56,1.36,10.11,2.76,20.22,4.13,30.32.85,6.2,1.65,12.39,2.48,18.59a5.72,5.72,0,0,0,.87,3.15c1.5-4,3-7.76,4.38-11.59q10.17-28.25,20.29-56.49c4.85-13.47,9.7-26.93,14.66-40.36,3.82-10.37,14-13.47,22.58-6.83,13.07,10.15,27.49,18,42.46,24.86,15.68,7.23,31.78,13.52,47.09,21.55,5.89,3.09,11.68,6.41,16.85,11.52-18.73-1.88-36.39.19-53.26,7.58C1051.66,612.9,1013.69,625.27,995.92,669.05Z" transform="translate(-719.86 -295.22)"/><path class="cls-1" d="M826.16,410.27c-.2-2.16-1.35-3.08-3.5-2.68-2.39.46-3.78-1-5.46-2.41-3.49-2.82-4.27-6.26-4.16-10.6.29-11.41.05-22.82.15-34.23,0-1.94-.6-2.61-2.44-3.1-13.48-3.59-26.91-7.34-40.37-11a18.11,18.11,0,0,1-8.55-4.78c-3.79-3.95-3.7-9.16.18-13,3.31-3.28,7.5-4.43,11.89-5.27q43.94-8.45,87.88-16.92,27.3-5.26,54.59-10.58c5.09-1,10-.12,15,.85,19.08,3.75,38.18,7.4,57.28,11.08Q1026,314.77,1063.3,322a102.34,102.34,0,0,1,10.76,2.3c6,1.86,10.72,5.57,10.39,13.6-.41,9.74-.11,19.5-.18,29.26,0,1.86.31,3.06,2.26,4.06a10.42,10.42,0,0,1,4.5,13.75,3.58,3.58,0,0,0,0,3.57,9.89,9.89,0,0,1,.07,8.78c-1,2.26-2.57,3.09-4.85,2.25a14.69,14.69,0,0,0-10,0c-2.65.87-4,.12-4.9-2.46a10.8,10.8,0,0,1,.17-8.58,3.53,3.53,0,0,0,.09-3.34c-2.74-5.87.32-12.82,5.43-14.5a1.61,1.61,0,0,0,1.21-1.84c0-8,0-16,0-24.33-7.69,2.82-15.46,4.54-23.1,6.75s-15,4.17-22.59,6.09c-1.87.47-2.4,1.23-2.38,3.14.1,12.42,0,24.85.1,37.27,0,2.16-.33,4-2,5.4l-.33.47-.48.19a11.63,11.63,0,0,1-1.86-.41c-3.5-1.37-6.53-1-9.27,1.85-4.27,4.45-8.67,8.77-13.07,13.09-1.15,1.13-1.8,2.83-3.6,3.24A104.89,104.89,0,0,0,996,409.4c-.52-1.49-1.29-1.85-2.8-1.85q-70.7.06-141.39,0c-1.69,0-2.6.48-2.81,2.16l-.86.8c-3.74-2.84-3.75-2.92-.56-6.1.39-.39.77-.78,1.17-1.16.66-.63,1-1.24.26-2.1s-1.64-.62-2.37.05a39.8,39.8,0,0,0-2.9,2.91c-1,1.12-1.69.58-2.52-.18s-1.09-1.57-.09-2.5c1.2-1.12,2.32-2.34,3.48-3.51a1.63,1.63,0,0,0,0-2.45c-.78-.94-1.49-.41-2.07.22-1.8,1.95-3.94,3.56-5.42,5.82-.65,1-.85,1.76-.05,2.7,3,3.48,5.87,7,9.81,9.47-.05.54-.09,1.09-.13,1.63l-.44.58c-1.18-.5-2.33-1.07-3.54-1.47a5.72,5.72,0,0,1-4.17-4.29c-1.32-4.45-5.35-5.09-8.67-1.89-1,1-1.7,2.47-3.37,2.64Z" transform="translate(-719.86 -295.22)"/><path class="cls-1" d="M1003.69,697.69a78.92,78.92,0,0,1,8-27.9,89,89,0,0,1,68.52-49.61c25.63-3.22,48.57,3.25,68.43,19.61,18.88,15.54,29.51,35.74,31.9,60.17a89,89,0,0,1-176.48,22.64c-.2-1.17-.25-2.37-.37-3.55Q1003.68,708.37,1003.69,697.69Zm122.06-18c-.11-19-15.58-34.22-34.1-33.89a33.89,33.89,0,0,0-32.79,26.8c-.73,3.32-1.39,6.73-.19,10.06a8.56,8.56,0,0,0,9.48,5.45c4.3-.75,6.95-4,7.27-8.76.52-8.08,4.83-13.59,12.28-15.72a16.86,16.86,0,0,1,17.84,6.39c4,5.5,4.11,11.92,0,17.7-4,5.61-8.38,10.93-12.33,16.55a52.56,52.56,0,0,0-9.93,30.14,9,9,0,0,0,5.23,8.36c5.9,2.43,11.78-1.49,12.12-8.19.23-4.4.42-8.76,1.64-13.08,2.44-8.64,8-15.2,13.93-21.52C1121.69,694.17,1126.13,687.87,1125.75,679.68ZM1092,753.86a8.65,8.65,0,0,0-8.7,8.47,8.79,8.79,0,0,0,8.84,8.66,8.63,8.63,0,0,0,8.52-8.69A8.43,8.43,0,0,0,1092,753.86Z" transform="translate(-719.86 -295.22)"/><path class="cls-1" d="M1014.74,458.41c-5.17,11.52-7.61,24.08-14.07,35.13a111.68,111.68,0,0,1-27.48,32c-9.11,7.16-18.73,13.25-30,16.36-21.84,6-42.4,2.71-62.05-8.29a101.77,101.77,0,0,1-33.89-30.52,107.94,107.94,0,0,1-16.35-35.26c-1.24-4.73-3.95-8.83-5.18-13.57s-1.75-9.37-2.66-14l-.08-1.11a7.4,7.4,0,0,0,0-3.31l-.14-1.13.12-4.95.75-3.29a9.26,9.26,0,0,0,2-.86c1.18-.85,2.27-1.26,3.39,0s.48,2.37-.4,3.41-2.07,2.3-3.06,3.48a1.22,1.22,0,0,0,.25,1.92,1.09,1.09,0,0,0,1.7-.21c.94-1.67,2.74-2.41,3.9-3.82,2.72-3.3,2-6.56-2-8.35-.8-.36-2-.46-.82-1.75.87-.81,0-1.79.28-2.67a64.92,64.92,0,0,1,6.27,6c.66.8,1.43,1.49,2.51.5s.8-1.89-.17-2.77c-.4-.36-.78-.77-1.16-1.16-.75-.78-1.8-1.52-.74-2.76.92-1.08,2-2.13,3.48-1,2.26,1.62,4.47,2.08,6.76.12-1,4-2.25,8-2.89,12-4.23,26.68.72,51.41,16.4,73.62,9.85,13.94,22.62,24.46,38.88,30,27.82,9.5,52.25,3.32,73.29-16.93a95.06,95.06,0,0,0,19-26.57c6.64-13.35,11.37-27.28,12.08-42.34,3.54,1.93,5.79,5.28,8.64,8C1012.61,455.46,1014.33,456.43,1014.74,458.41Z" transform="translate(-719.86 -295.22)"/><path class="cls-1" d="M1015.34,410.9c-.33,2.36-2.3,4.12-2.33,6.65,0,1.57-.07,2.69,2,2.21.32-.08.76.38,1.14.59-4.82,7.48-4.12,12.22,2.53,17.09a56.79,56.79,0,0,1-2.92,17.62c-1.38-1.45-2.66-3-4.16-4.32-3.08-2.69-5.42-6.17-9-8.37q-1.08-8.82-2.17-17.62c2.41-2.33,4.77-4.7,7.24-7S1012.19,412.51,1015.34,410.9Z" transform="translate(-719.86 -295.22)"/><path class="cls-1" d="M1027.94,403.55l.33-.47a3.86,3.86,0,0,0,3.61.13" transform="translate(-719.86 -295.22)"/><path class="cls-1" d="M1003.69,697.69q0,10.68,0,21.36A69.86,69.86,0,0,1,1003.69,697.69Z" transform="translate(-719.86 -295.22)"/><path class="cls-1" d="M826.16,410.27l.36.6.47,1.68c-1.24.28-2.34.58-.72,1.95.79.67.7,1.21-.41,1.38-.41-.64-1.06-.54-1.67-.55h0A5.23,5.23,0,0,1,826.16,410.27Z" transform="translate(-719.86 -295.22)"/><path class="cls-1" d="M828.71,420.21c-.43-.68-1.17-.41-1.76-.59v-1.5c1-1.42-.68-1.16-1.1-1.7,0-.18,0-.36,0-.54,1.11-.17,1.2-.71.41-1.38-1.62-1.37-.52-1.67.72-1.95a11.94,11.94,0,0,1,2,5C828.73,418.42,829.58,419.4,828.71,420.21Z" transform="translate(-719.86 -295.22)"/><path class="cls-1" d="M825.86,415.88c0,.18,0,.36,0,.54a1.64,1.64,0,0,1-1.65-1.09C824.8,415.34,825.45,415.24,825.86,415.88Z" transform="translate(-719.86 -295.22)"/><path class="cls-1" d="M835.84,412a5,5,0,0,1-3.34,3.54c-1.11.28-2.1-1.22-2.61-2.4-.25-.58,3-3.87,3.67-3.71A3.12,3.12,0,0,1,835.84,412Z" transform="translate(-719.86 -295.22)"/><path class="cls-1" d="M822,420.85a1.12,1.12,0,0,1,.55-1.1A1.09,1.09,0,0,1,822,420.85Z" transform="translate(-719.86 -295.22)"/><path class="cls-1" d="M990.06,403.08s21.76,19.67,6.75,71.16h12s18.66-33.55,5.9-66.7S990.06,403.08,990.06,403.08Z" transform="translate(-719.86 -295.22)"/><path class="cls-1" d="M823.17,437.22s-1.76-23.39,1.85-45.09,26.39.91,26.55,5.5-4.4,16.94-7.4,25.59-11.31,14.92-11.31,14.92Z" transform="translate(-719.86 -295.22)"/></svg>