<svg id="Layer_4" data-name="Layer 4" xmlns="http://www.w3.org/2000/svg" viewBox="0 0 343.68 378.56"><defs><style>.cls-1{fill:#fff;}</style></defs><title>uploadIcon</title><path class="cls-1" d="M1600.4,418.89c1.78,1.58,2.89,2.47,3.89,3.48Q1628,446,1651.75,469.66c13.5,13.39,33.56,13.7,46.61.83s13.1-33.15-.27-46.58q-52.74-53-105.7-105.72c-14.89-14.82-33.87-14.76-48.77-.09-10.92,10.76-21.71,21.65-32.56,32.49l-72.83,72.81c-8.52,8.52-12.12,18.72-9.62,30.55,2.59,12.21,10.12,20.61,22,24.36,12.29,3.88,23.52,1.17,32.74-7.91,16-15.77,31.84-31.79,47.75-47.7,1.1-1.1,2.31-2.1,4.08-3.69v6.36q0,71.25.06,142.49a42.73,42.73,0,0,0,1.44,11.33,32.55,32.55,0,0,0,35.61,23.43c16.13-2.13,28.06-15.81,28.08-32.54q.09-72.5,0-145Zm-32.24,266.73c36.82,0,73.64.07,110.46,0,29.85-.07,55.76-19.63,59.89-47.23,2.21-14.82,1.17-30.2.61-45.3-.14-3.62-3.52-8-6.64-10.44-6-4.7-13.1-4.54-19.81-1.09-6.25,3.21-8.79,8.77-8.72,15.68.1,9,.57,18,.1,27-1,18.11-9.26,25.62-27.4,25.61l-205.44-.16c-5.83,0-11.68.2-17.48-.26-12.2-1-19.63-7.8-21.53-19.78a86.26,86.26,0,0,1-.87-13.92c0-6.33.75-12.65.69-19-.1-10.46-7.38-17.39-17.85-17.42s-18,6.8-18,17.23c0,11.65,0,23.36,1,34.94,1.78,19,8.56,35.57,26.5,45.44a70.4,70.4,0,0,0,34.48,8.72Z" transform="translate(-1396.18 -307.09)"/><path class="cls-1" d="M1568.16,685.62h-110a70.4,70.4,0,0,1-34.48-8.72c-17.94-9.87-24.72-26.4-26.5-45.44-1.08-11.58-1-23.29-1-34.94,0-10.43,7.47-17.27,18-17.23s17.75,7,17.85,17.42c.06,6.32-.66,12.64-.69,19a86.26,86.26,0,0,0,.87,13.92c1.9,12,9.33,18.83,21.53,19.78,5.8.46,11.65.25,17.48.26l205.44.16c18.14,0,26.45-7.5,27.4-25.61.47-9,0-18-.1-27-.07-6.91,2.47-12.47,8.72-15.68,6.71-3.45,13.84-3.61,19.81,1.09,3.12,2.46,6.5,6.82,6.64,10.44.56,15.1,1.6,30.48-.61,45.3-4.13,27.6-30,47.16-59.89,47.23C1641.8,685.69,1605,685.62,1568.16,685.62Z" transform="translate(-1396.18 -307.09)"/></svg>